<?xml version="1.0" encoding="UTF-8" standalone="no"?>
<svg
   viewBox="0 0 356.62 226.7"
   version="1.1"
   id="svg38"
   xmlns="http://www.w3.org/2000/svg"
   xmlns:svg="http://www.w3.org/2000/svg">
  <defs
     id="defs42" />
  <g
     id="g1495">
    <g
       id="graphics">
      <g
         id="g19">
        <path
           d="M378.9,230.36H506.05s-3-5.18-10.73-11.87-13.53-8.92-29.37-11.56c-17.19-2.87-75.07-2.12-83.42-1.22-7,.76-8.92,2.86-9.74,4.08-1.54,2.27-1.49,4.58-1.1,7.78a65.79,65.79,0,0,0,1.4,7.06C374.41,230.15,377.38,230.36,378.9,230.36Z"
           transform="translate(-249 -204.9)"
           style="fill: #ed213a"
           id="path9" />
        <path
           d="M516.21,234.08c2.5,0,12.53-2.25,14.79-5s-1.76-5.76-4.77-7.27-8.1-4.26-12.57-2c0,0-.71,0-1.46,3.51S513.71,234.08,516.21,234.08Z"
           transform="translate(-249 -204.9)"
           style="fill: #ed213a"
           id="path11" />
        <path
           d="M313.51,242.78c4.42,1.92,41.63-12.11,41.63-12.11s4.54-1.3,7.26-7.52c2.05-4.69,5-11,2.69-13.65-.47-.54-1.86-1.94-6-.42a115.87,115.87,0,0,0-34.33,19C315.49,235.67,309.08,240.85,313.51,242.78Z"
           transform="translate(-249 -204.9)"
           style="fill: #ed213a"
           id="path13" />
        <path
           d="M306.06,239c.1,1.48,6.69-11.11,25.31-22.11,2.63-1.56-6.61-.24-15.35,2.07-4.47,1.18-13.78,3.16-14.69,6.31-.84,2.93,1.43,5.64,2.25,6.77A17.12,17.12,0,0,1,306.06,239Z"
           transform="translate(-249 -204.9)"
           style="fill: #ed213a"
           id="path15" />
        <path
           d="M542.21,317.58c4.34-.63,5.46-6.76,5.78-7.5,4.22-.05,5,0,6.59,0,3,0,2.75-5.82,3.21-17.57.21-5.36,1-11.88.44-23.71-.71-14.06-10.67-27.81-18.73-28-12-.24-18.47,2.88-23.58,15.44,2-.06,27.54,0,29.94,2.4s2.39,8.92,2.39,8.92-26.89-.7-35.12-.16c-1.65,10.69-2.51,21.08-18.76,23-25.64,3-50.82,1.95-59.11-12.16a79.05,79.05,0,0,0-6.9-10.18c-14.11-.14-38.68.36-40,.36-1.74,0-2.61-3.69-3-6.31-.71-4.24,1.52-3.63,31.61-5.36-7.42-5.91-17.56-11.82-31.52-16.39-33.88-11.09-42.12-3.92-47.16,7.18-4,8.78-4.51,18-3.94,28.86.1,1.94,0,8.25,0,8.92-7.59-.43-20.46.64-21.14-13.46s1.6-18.82,1.6-19.69-10.76-1.08-8.24-7.39-11.14.8-14.19,3a8.68,8.68,0,0,0-5,6.31,45.71,45.71,0,0,0-.5,6.26c-3.64,2.75-6.37,14.32-6.37,28.19,0,9.88,1.39,18.59,3.5,23.78.62,1.52,2.36,4.67,3.89,5.59-20.93.93-33.35,2.09-33.35,3.35,0,3.08,74.08,5.58,165.46,5.58s165.45-2.5,165.45-5.58C585.37,319.88,569,318.57,542.21,317.58Zm-195.5-61.15c3.6,0,6.53,11.61,6.53,25.93s-2.93,25.93-6.53,25.93-6.53-11.61-6.53-25.93S343.1,256.43,346.71,256.43Zm-61.43,32.18c0-12.31,2.51-22.29,5.62-22.29s5.61,10,5.61,22.29S294,310.9,290.9,310.9,285.28,300.92,285.28,288.61Zm35,19.58c6.09.32,12.26.5,17.68.6,1.24,3.49,2.74,6.13,4.4,7.62-9.45.17-18.35.37-26.6.59C317.5,315.9,319.07,312.73,320.25,308.19ZM372,316a14.28,14.28,0,0,0,2.21-4c15.44-.1,90.33-.93,138.63-1.47,1.24,3,2.69,5.17,4.27,6.34-27.29-.67-60.88-1.06-97.2-1.06C403.26,315.76,387.18,315.84,372,316Z"
           transform="translate(-249 -204.9)"
           style="fill: #ed213a"
           id="path17" />
      </g>
      <g
         aria-label="ONGAD"
         transform="translate(0 186.1)"
         id="text21"
         style="font-weight:700;font-size:75px;font-family:SinhalaMN-Bold, 'Sinhala MN';letter-spacing:0.15em;fill:#d5e5ff">
        <path
           d="m 31.164551,1.1352539 q -5.639649,0 -10.546875,-2.01416015 -4.870606,-2.01416015 -8.496094,-5.49316405 -3.5888672,-3.515625 -5.6762695,-8.1665037 -2.0507813,-4.6875 -2.0507813,-9.997559 0,-3.479004 0.9155274,-6.70166 0.9521484,-3.222656 2.6733398,-6.005859 1.7211914,-2.783203 4.1381836,-5.053711 2.453613,-2.307129 5.419922,-3.918457 2.966308,-1.64795 6.408691,-2.526856 3.442383,-0.915527 7.214356,-0.915527 3.771972,0 7.214355,0.915527 3.442383,0.878906 6.408692,2.526856 3.002929,1.611328 5.419922,3.918457 2.416992,2.270508 4.138183,5.053711 1.757813,2.783203 2.67334,6.005859 0.952148,3.222656 0.952148,6.70166 0,3.515625 -0.952148,6.811524 -0.915527,3.259277 -2.67334,6.115722 -1.721191,2.8564456 -4.138183,5.2001956 -2.416993,2.34375 -5.419922,4.0283203 -2.966309,1.68457032 -6.408692,2.60009766 -3.442383,0.91552734 -7.214355,0.91552734 z m 0,-2.4169922 q 4.174804,0 7.36084,-1.7211914 3.222656,-1.7578125 5.419921,-4.8706055 2.197266,-3.1127928 3.295899,-7.3608398 1.135254,-4.248047 1.135254,-9.301758 0,-5.01709 -1.135254,-9.191894 -1.098633,-4.174805 -3.295899,-7.177735 -2.197265,-3.03955 -5.419921,-4.6875 -3.186036,-1.68457 -7.36084,-1.68457 -4.248047,0 -7.470703,1.68457 -3.186036,1.64795 -5.383301,4.6875 -2.160645,3.00293 -3.259277,7.177735 -1.098633,4.174804 -1.098633,9.191894 0,5.053711 1.098633,9.301758 1.098632,4.248047 3.259277,7.3608398 2.197265,3.112793 5.383301,4.8706055 3.222656,1.7211914 7.470703,1.7211914 z"
           style="font-weight:700;font-size:75px;font-family:SinhalaMN-Bold, 'Sinhala MN';letter-spacing:0.15em;fill:#d5e5ff"
           id="path772" />
        <path
           d="m 80.244141,-48.55957 h 4.577636 l 31.823733,35.522461 h 0.36621 V -48.55957 h 3.58887 V 1.1352539 h -1.9043 L 84.23584,-38.342285 H 83.942871 V 0 h -3.69873 z"
           style="font-weight:700;font-size:75px;font-family:SinhalaMN-Bold, 'Sinhala MN';letter-spacing:0.15em;fill:#d5e5ff"
           id="path774" />
        <path
           d="m 172.68311,-46.179199 q -4.39454,0 -8.12989,1.574707 -3.69873,1.538086 -6.40869,4.467773 -2.67334,2.893067 -4.1748,7.03125 -1.50147,4.101563 -1.50147,9.191895 0,5.126953 1.61133,9.265136 1.64795,4.101563 4.46777,6.9946294 2.85645,2.8930664 6.70166,4.4677734 3.84522,1.538086 8.23975,1.538086 3.18603,0 5.74951,-0.8422852 2.56348,-0.8789062 4.61426,-2.4902343 V -22.009277 h -9.1919 v -2.893067 h 17.3584 v 21.3500979 q -2.12402,1.1352539 -4.28467,2.0141602 -2.16064,0.87890621 -4.6875,1.46484371 -2.49023,0.5859375 -5.49316,0.87890625 -3.00293,0.32958984 -6.81152,0.32958984 -4.02832,0 -7.65381,-0.91552734 -3.62549,-0.87890625 -6.73828,-2.52685546 -3.07617,-1.6479492 -5.56641,-3.918457 -2.49023,-2.3071289 -4.24805,-5.0903321 -1.72119,-2.783203 -2.67334,-5.969238 -0.95214,-3.186035 -0.95214,-6.628418 0,-3.405762 0.8789,-6.628418 0.91553,-3.259278 2.6001,-6.115723 1.68457,-2.893066 4.10156,-5.273437 2.41699,-2.380371 5.45655,-4.101563 3.03955,-1.721191 6.62841,-2.67334 3.58887,-0.952148 7.61719,-0.952148 3.84522,0 7.10449,1.062012 3.2959,1.02539 5.96924,2.746582 2.70996,1.721191 4.79736,3.991699 2.08741,2.233887 3.58887,4.6875 l -3.51562,2.34375 q -3.07617,-5.895996 -6.84815,-8.605957 -3.73535,-2.746582 -8.60595,-2.746582 z"
           style="font-weight:700;font-size:75px;font-family:SinhalaMN-Bold, 'Sinhala MN';letter-spacing:0.15em;fill:#d5e5ff"
           id="path776" />
        <path
           d="M 234.68994,-49.658203 257.5415,0 h -8.31298 l -7.39747,-16.186523 h -20.8374 L 213.33984,0 h -4.10156 l 23.40088,-49.658203 z m -12.26807,30.322266 h 17.90772 l -8.82568,-19.226075 z"
           style="font-weight:700;font-size:75px;font-family:SinhalaMN-Bold, 'Sinhala MN';letter-spacing:0.15em;fill:#d5e5ff"
           id="path778" />
        <path
           d="m 275.56641,-48.55957 h 16.18652 q 7.4707,0 12.854,1.391601 5.3833,1.391602 8.97217,4.467774 4.10156,3.515625 6.15235,8.05664 2.0874,4.541016 2.0874,9.924317 0,5.126953 -1.86768,9.631347 -1.83105,4.504395 -5.41992,7.8735355 -3.55225,3.3325196 -8.82568,5.2734375 Q 300.46875,0 293.69385,0 h -18.12744 z m 8.1665,45.0073239 h 8.6792 q 4.10156,0 7.72705,-1.3549805 3.62549,-1.3549804 6.29883,-4.0283203 2.70996,-2.6733401 4.24805,-6.5551761 1.5747,-3.918457 1.5747,-9.04541 0,-4.504394 -1.46484,-8.239746 -1.46485,-3.771973 -4.10156,-6.481933 -2.63672,-2.709961 -6.29883,-4.211426 -3.62549,-1.501465 -7.94678,-1.501465 h -8.71582 z"
           style="font-weight:700;font-size:75px;font-family:SinhalaMN-Bold, 'Sinhala MN';letter-spacing:0.15em;fill:#d5e5ff"
           id="path780" />
      </g>
      <g
         aria-label="vin checker"
         transform="translate(85.99 218.84)"
         id="text35"
         style="font-size:30px;font-family:Montserrat-Regular, Montserrat;letter-spacing:0.05em;fill:#ed213a">
        <path
           d="M 16.23,-15.78 9.21,0 H 7.02 L 0.03,-15.78 h 2.22 l 5.91,13.44 5.97,-13.44 z"
           style="font-size:30px;font-family:Montserrat-Regular, Montserrat;letter-spacing:0.05em;fill:#ed213a"
           id="path1353" />
        <path
           d="m 20.759062,-15.78 h 2.130001 V 0 h -2.130001 z m 1.08,-3.45 q -0.66,0 -1.109999,-0.45 -0.45,-0.45 -0.45,-1.08 0,-0.6 0.45,-1.05 0.449999,-0.45 1.109999,-0.45 0.66,0 1.11,0.45 0.45,0.42 0.45,1.02 0,0.66 -0.45,1.11 -0.45,0.45 -1.11,0.45 z"
           style="font-size:30px;font-family:Montserrat-Regular, Montserrat;letter-spacing:0.05em;fill:#ed213a"
           id="path1355" />
        <path
           d="m 38.385,-15.9 q 2.97,0 4.71,1.74 1.77,1.71 1.77,5.01 V 0 h -2.13 v -8.94 q 0,-2.46 -1.23,-3.75 -1.23,-1.29 -3.51,-1.29 -2.55,0 -4.05,1.53 -1.47,1.5 -1.47,4.17 V 0 h -2.13 v -15.78 h 2.04 v 2.91 q 0.87,-1.44 2.4,-2.22 1.56,-0.81 3.6,-0.81 z"
           style="font-size:30px;font-family:Montserrat-Regular, Montserrat;letter-spacing:0.05em;fill:#ed213a"
           id="path1357" />
        <path
           d="m 68.01,0.15 q -2.34,0 -4.2,-1.02 -1.83,-1.02 -2.88,-2.85 -1.05,-1.86 -1.05,-4.17 0,-2.31 1.05,-4.14 1.05,-1.83 2.88,-2.85 1.86,-1.02 4.2,-1.02 2.04,0 3.63,0.81 1.62,0.78 2.55,2.31 l -1.59,1.08 q -0.78,-1.17 -1.98,-1.74 -1.2,-0.6 -2.61,-0.6 -1.71,0 -3.09,0.78 -1.35,0.75 -2.13,2.16 -0.75,1.41 -0.75,3.21 0,1.83 0.75,3.24 0.78,1.38 2.13,2.16 1.38,0.75 3.09,0.75 1.41,0 2.61,-0.57 1.2,-0.57 1.98,-1.74 l 1.59,1.08 q -0.93,1.53 -2.55,2.34 -1.62,0.78 -3.63,0.78 z"
           style="letter-spacing:0.0420085em"
           id="path1359" />
        <path
           d="m 87.660002,-15.9 q 2.97,0 4.71,1.74 1.77,1.71 1.77,5.01 V 0 h -2.13 v -8.94 q 0,-2.46 -1.23,-3.75 -1.23,-1.29 -3.51,-1.29 -2.55,0 -4.05,1.53 -1.47,1.5 -1.47,4.17 V 0 h -2.13 v -22.26 h 2.13 v 9.24 q 0.87,-1.38 2.4,-2.13 1.53,-0.75 3.51,-0.75 z"
           style="letter-spacing:0.052002em"
           id="path1361" />
        <path
           d="m 115.23,-7.23 h -13.2 q 0.18,2.46 1.89,3.99 1.71,1.5 4.32,1.5 1.47,0 2.7,-0.51 1.23,-0.54 2.13,-1.56 l 1.2,1.38 q -1.05,1.26 -2.64,1.92 -1.56,0.66 -3.45,0.66 -2.43,0 -4.32,-1.02 -1.86,-1.05 -2.91,-2.88 -1.050003,-1.83 -1.050003,-4.14 0,-2.31 0.990003,-4.14 1.02,-1.83 2.76,-2.85 1.77,-1.02 3.96,-1.02 2.19,0 3.93,1.02 1.74,1.02 2.73,2.85 0.99,1.8 0.99,4.14 z m -7.62,-6.84 q -2.28,0 -3.84,1.47 -1.53,1.44 -1.74,3.78 h 11.19 q -0.21,-2.34 -1.77,-3.78 -1.53,-1.47 -3.84,-1.47 z"
           id="path1363" />
        <path
           d="m 127.65,0.15 q -2.34,0 -4.2,-1.02 -1.83,-1.02 -2.88,-2.85 -1.05,-1.86 -1.05,-4.17 0,-2.31 1.05,-4.14 1.05,-1.83 2.88,-2.85 1.86,-1.02 4.2,-1.02 2.04,0 3.63,0.81 1.62,0.78 2.55,2.31 l -1.59,1.08 q -0.78,-1.17 -1.98,-1.74 -1.2,-0.6 -2.61,-0.6 -1.71,0 -3.09,0.78 -1.35,0.75 -2.13,2.16 -0.75,1.41 -0.75,3.21 0,1.83 0.75,3.24 0.78,1.38 2.13,2.16 1.38,0.75 3.09,0.75 1.41,0 2.61,-0.57 1.2,-0.57 1.98,-1.74 l 1.59,1.08 q -0.93,1.53 -2.55,2.34 -1.62,0.78 -3.63,0.78 z"
           style="letter-spacing:0.0420085em"
           id="path1365" />
        <path
           d="m 145.10999,-7.92 -3.72,3.42 V 0 h -2.13 v -22.26 h 2.13 v 15.09 l 9.42,-8.61 h 2.64 l -6.75,6.45 7.38,9.33 h -2.61 z"
           style="letter-spacing:0.0290039em"
           id="path1367" />
        <path
           d="m 171.9,-7.23 h -13.2 q 0.18,2.46 1.89,3.99 1.71,1.5 4.32,1.5 1.47,0 2.7,-0.51 1.23,-0.54 2.13,-1.56 l 1.2,1.38 q -1.05,1.26 -2.64,1.92 -1.56,0.66 -3.45,0.66 -2.43,0 -4.32,-1.02 -1.86,-1.05 -2.91,-2.88 -1.05,-1.83 -1.05,-4.14 0,-2.31 0.99,-4.14 1.02,-1.83 2.76,-2.85 1.77,-1.02 3.96,-1.02 2.19,0 3.93,1.02 1.74,1.02 2.73,2.85 0.99,1.8 0.99,4.14 z m -7.62,-6.84 q -2.28,0 -3.84,1.47 -1.53,1.44 -1.74,3.78 h 11.19 q -0.21,-2.34 -1.77,-3.78 -1.53,-1.47 -3.84,-1.47 z"
           id="path1369" />
        <path
           d="m 179.80547,-12.69 q 0.75,-1.59 2.22,-2.4 1.5,-0.81 3.69,-0.81 v 2.07 l -0.51,-0.03 q -2.49,0 -3.9,1.53 -1.41,1.53 -1.41,4.29 V 0 h -2.13 v -15.78 h 2.04 z"
           id="path1371" />
      </g>
    </g>
  </g>
</svg>
