<svg width="40" height="50" viewBox="0 0 40 50" fill="none" xmlns="http://www.w3.org/2000/svg">
<path d="M40 20C40 25.42 30.8425 30 20 30C9.1575 30 0 25.42 0 20V27.5C0 32.92 9.1575 37.5 20 37.5C30.8425 37.5 40 32.92 40 27.5V20Z" fill="url(#paint0_linear_13_496)"/>
<path d="M40 10C40 4.58 30.8425 0 20 0C9.1575 0 0 4.58 0 10V15C0 20.42 9.1575 25 20 25C30.8425 25 40 20.42 40 15V10ZM20 42.5C9.1575 42.5 0 37.92 0 32.5V40C0 45.42 9.1575 50 20 50C30.8425 50 40 45.42 40 40V32.5C40 37.92 30.8425 42.5 20 42.5Z" fill="url(#paint1_linear_13_496)"/>
<defs>
<linearGradient id="paint0_linear_13_496" x1="20" y1="20" x2="20" y2="37.5" gradientUnits="userSpaceOnUse">
<stop stop-color="#ED213A"/>
<stop offset="1" stop-color="#93291E"/>
</linearGradient>
<linearGradient id="paint1_linear_13_496" x1="20" y1="0" x2="20" y2="50" gradientUnits="userSpaceOnUse">
<stop stop-color="#ED213A"/>
<stop offset="1" stop-color="#93291E"/>
</linearGradient>
</defs>
</svg>
