<svg width="55" height="40" viewBox="0 0 55 40" fill="none" xmlns="http://www.w3.org/2000/svg">
<path d="M45 25V5C45 2.25 42.75 0 40 0H5C2.25 0 0 2.25 0 5V25C0 27.75 2.25 30 5 30H40C42.75 30 45 27.75 45 25ZM22.5 22.5C18.35 22.5 15 19.15 15 15C15 10.85 18.35 7.5 22.5 7.5C26.65 7.5 30 10.85 30 15C30 19.15 26.65 22.5 22.5 22.5ZM55 7.5V35C55 37.75 52.75 40 50 40H7.5V35H50V7.5H55Z" fill="url(#paint0_linear_13_499)"/>
<defs>
<linearGradient id="paint0_linear_13_499" x1="27.5" y1="0" x2="27.5" y2="40" gradientUnits="userSpaceOnUse">
<stop stop-color="#ED213A"/>
<stop offset="1" stop-color="#93291E"/>
</linearGradient>
</defs>
</svg>
