<svg width="40" height="50" viewBox="0 0 40 50" fill="none" xmlns="http://www.w3.org/2000/svg">
<path d="M20 15V0H5C3.67392 0 2.40215 0.526784 1.46447 1.46447C0.526784 2.40215 0 3.67392 0 5V45C0 46.3261 0.526784 47.5979 1.46447 48.5355C2.40215 49.4732 3.67392 50 5 50H35C36.3261 50 37.5979 49.4732 38.5355 48.5355C39.4732 47.5979 40 46.3261 40 45V20H25C23.6739 20 22.4021 19.4732 21.4645 18.5355C20.5268 17.5979 20 16.3261 20 15ZM7.5 25.625C7.5 25.1277 7.69754 24.6508 8.04917 24.2992C8.40081 23.9475 8.87772 23.75 9.375 23.75C9.87228 23.75 10.3492 23.9475 10.7008 24.2992C11.0525 24.6508 11.25 25.1277 11.25 25.625C11.25 26.1223 11.0525 26.5992 10.7008 26.9508C10.3492 27.3025 9.87228 27.5 9.375 27.5C8.87772 27.5 8.40081 27.3025 8.04917 26.9508C7.69754 26.5992 7.5 26.1223 7.5 25.625ZM7.5 33.125C7.5 32.6277 7.69754 32.1508 8.04917 31.7992C8.40081 31.4475 8.87772 31.25 9.375 31.25C9.87228 31.25 10.3492 31.4475 10.7008 31.7992C11.0525 32.1508 11.25 32.6277 11.25 33.125C11.25 33.6223 11.0525 34.0992 10.7008 34.4508C10.3492 34.8025 9.87228 35 9.375 35C8.87772 35 8.40081 34.8025 8.04917 34.4508C7.69754 34.0992 7.5 33.6223 7.5 33.125ZM7.5 40.625C7.5 40.1277 7.69754 39.6508 8.04917 39.2992C8.40081 38.9475 8.87772 38.75 9.375 38.75C9.87228 38.75 10.3492 38.9475 10.7008 39.2992C11.0525 39.6508 11.25 40.1277 11.25 40.625C11.25 41.1223 11.0525 41.5992 10.7008 41.9508C10.3492 42.3025 9.87228 42.5 9.375 42.5C8.87772 42.5 8.40081 42.3025 8.04917 41.9508C7.69754 41.5992 7.5 41.1223 7.5 40.625ZM15 25.625C15 25.1277 15.1975 24.6508 15.5492 24.2992C15.9008 23.9475 16.3777 23.75 16.875 23.75H30.625C31.1223 23.75 31.5992 23.9475 31.9508 24.2992C32.3025 24.6508 32.5 25.1277 32.5 25.625C32.5 26.1223 32.3025 26.5992 31.9508 26.9508C31.5992 27.3025 31.1223 27.5 30.625 27.5H16.875C16.3777 27.5 15.9008 27.3025 15.5492 26.9508C15.1975 26.5992 15 26.1223 15 25.625ZM15 33.125C15 32.6277 15.1975 32.1508 15.5492 31.7992C15.9008 31.4475 16.3777 31.25 16.875 31.25H30.625C31.1223 31.25 31.5992 31.4475 31.9508 31.7992C32.3025 32.1508 32.5 32.6277 32.5 33.125C32.5 33.6223 32.3025 34.0992 31.9508 34.4508C31.5992 34.8025 31.1223 35 30.625 35H16.875C16.3777 35 15.9008 34.8025 15.5492 34.4508C15.1975 34.0992 15 33.6223 15 33.125ZM15 40.625C15 40.1277 15.1975 39.6508 15.5492 39.2992C15.9008 38.9475 16.3777 38.75 16.875 38.75H30.625C31.1223 38.75 31.5992 38.9475 31.9508 39.2992C32.3025 39.6508 32.5 40.1277 32.5 40.625C32.5 41.1223 32.3025 41.5992 31.9508 41.9508C31.5992 42.3025 31.1223 42.5 30.625 42.5H16.875C16.3777 42.5 15.9008 42.3025 15.5492 41.9508C15.1975 41.5992 15 41.1223 15 40.625ZM23.75 15V1.25L38.75 16.25H25C24.6685 16.25 24.3505 16.1183 24.1161 15.8839C23.8817 15.6495 23.75 15.3315 23.75 15Z" fill="url(#paint0_linear_13_501)"/>
<defs>
<linearGradient id="paint0_linear_13_501" x1="20" y1="0" x2="20" y2="50" gradientUnits="userSpaceOnUse">
<stop stop-color="#ED213A"/>
<stop offset="1" stop-color="#93291E"/>
</linearGradient>
</defs>
</svg>
