<svg width="1126" height="1147" viewBox="0 0 1126 1147" fill="none" xmlns="http://www.w3.org/2000/svg">
<path fill-rule="evenodd" clip-rule="evenodd" d="M1.81254 460.397C-12.2459 341.669 92.0881 242.324 188.123 161.388C285.966 78.9292 405.931 10.3013 546.652 1.22214C685.706 -7.74939 830.236 36.065 943.38 112.66C1046.77 182.653 1100.3 290.958 1133.01 398.171C1160.62 488.657 1184.45 569.734 1166 659.5C1147.92 747.464 1191.51 1036.08 1133.01 1108.28C1064.09 1193.36 1036 1108.28 753.867 1108.28C625.822 1135.57 466.666 1134.64 362.987 1056.8C260.678 979.985 318.155 837.146 255.982 734.481C192.073 628.949 15.5325 576.267 1.81254 460.397Z" fill="#F4F6FC"/>
</svg>
