
<svg width="1920" height="260" viewBox="0 0 1920 260" fill="none" xmlns="http://www.w3.org/2000/svg">
<path fill-rule="evenodd" clip-rule="evenodd" d="M0 25.5725L52.8 33.3867C107.2 41.201 212.8 56.8295 320 56.8295C427.2 56.8295 532.8 41.201 640 56.8295C747.2 72.458 852.8 119.343 960 127.158C1067.2 134.972 1172.8 103.715 1280 72.458C1387.2 41.201 1492.8 9.94397 1600 2.12972C1707.2 -5.68454 1812.8 9.94397 1867.2 17.7582L1920 25.5725V260H1867.2C1812.8 260 1707.2 260 1600 260C1492.8 260 1387.2 260 1280 260C1172.8 260 1067.2 260 960 260C852.8 260 747.2 260 640 260C532.8 260 427.2 260 320 260C212.8 260 107.2 260 52.8 260H0V25.5725Z" fill="#252E4B"/>
</svg>
